<?xml version="1.0" standalone="no"?>
<!DOCTYPE svg PUBLIC "-//W3C//DTD SVG 20010904//EN"
 "http://www.w3.org/TR/2001/REC-SVG-20010904/DTD/svg10.dtd">
<svg version="1.0" xmlns="http://www.w3.org/2000/svg"
 width="500.000000pt" height="499.000000pt" viewBox="0 0 500.000000 499.000000"
 preserveAspectRatio="xMidYMid meet">

<g transform="translate(0.000000,499.000000) scale(0.100000,-0.100000)"
fill="currentColor" stroke="none">
<path d="M1730 4699 c-609 -78 -1150 -466 -1409 -1009 -464 -973 27 -2119
1056 -2467 62 -21 113 -42 113 -46 0 -4 -15 -14 -34 -22 -24 -10 -35 -23 -39
-42 -32 -152 -47 -183 -92 -183 -16 -1 -41 -7 -55 -15 -14 -8 -39 -14 -57 -15
-37 0 -48 -14 -44 -52 2 -24 -1 -28 -21 -28 -27 0 -48 -17 -48 -37 0 -8 -10
-27 -22 -43 -21 -29 -25 -30 -90 -28 -58 1 -71 -2 -91 -20 -13 -12 -26 -22
-30 -22 -4 0 -16 -9 -27 -20 -11 -11 -31 -20 -44 -20 -31 0 -86 -24 -112 -49
-12 -11 -37 -28 -56 -38 -18 -10 -47 -28 -64 -40 -16 -12 -63 -28 -104 -35
l-75 -14 115 -8 c133 -8 300 -2 391 14 109 20 308 3 437 -38 49 -15 51 -17 30
-28 -26 -14 -29 -13 83 -43 62 -17 105 -21 245 -21 93 0 186 3 207 6 l38 7
-21 22 c-12 13 -17 25 -12 29 6 3 55 11 109 16 89 9 107 8 164 -9 35 -11 81
-22 102 -25 20 -3 53 -8 72 -11 19 -3 43 -15 53 -26 17 -17 48 -29 162 -59 19
-5 75 -10 124 -10 49 0 106 -5 127 -11 32 -10 46 -9 82 5 35 13 83 16 276 16
196 0 249 3 334 21 56 11 103 22 105 24 5 4 -18 23 -55 45 -18 11 -33 26 -33
35 0 39 67 47 580 64 295 9 430 20 430 32 0 5 -10 9 -23 9 -29 0 -252 57 -278
71 -10 5 -19 13 -19 18 0 5 96 12 213 15 116 4 254 14 305 22 51 8 107 12 125
10 18 -3 59 -2 92 2 l60 8 -55 12 c-30 7 -80 17 -110 23 -30 6 -73 15 -95 21
-22 6 -79 10 -127 9 -51 -1 -89 2 -93 9 -3 5 -14 10 -23 10 -9 0 -30 8 -47 17
-24 14 -65 19 -210 24 -232 8 -313 16 -345 38 -14 9 -38 23 -54 29 -28 12 -28
14 -24 80 4 62 2 70 -24 103 -19 23 -39 73 -60 145 -26 92 -31 127 -32 227
l-1 119 -38 19 c-55 29 -107 127 -123 232 l-7 42 21 -25 21 -25 1 25 c1 19 5
14 20 -24 23 -58 35 -73 26 -31 -6 29 -5 29 10 10 8 -11 29 -42 46 -70 30 -47
32 -49 38 -25 6 24 6 24 20 4 8 -11 28 -29 43 -39 l28 -18 -12 27 c-17 37 -4
44 29 14 15 -14 42 -33 60 -42 33 -17 33 -17 23 3 -17 31 -13 33 17 12 15 -11
37 -22 49 -26 19 -5 22 -3 16 12 -5 15 -4 16 8 7 8 -6 25 -15 39 -19 22 -7 23
-6 11 9 -12 15 -6 16 75 16 83 0 87 1 66 16 -32 22 -27 32 16 36 23 2 36 8 35
16 -2 7 7 12 21 12 27 0 43 16 24 23 -7 2 5 12 26 21 52 22 70 37 55 46 -7 5
4 19 30 40 23 19 41 37 41 41 0 4 -28 -2 -62 -14 -49 -16 -90 -20 -188 -21
l-126 -1 -76 38 c-100 49 -165 101 -224 179 -26 35 -61 78 -78 96 -16 17 -26
32 -22 32 5 0 3 7 -4 15 -7 8 -9 15 -6 15 4 0 2 9 -4 20 -8 15 -3 42 25 122
20 56 48 158 63 227 24 116 26 144 26 351 0 205 -2 236 -27 351 -51 239 -134
437 -275 649 -108 164 -311 365 -481 479 -246 164 -496 259 -779 296 -115 16
-367 18 -472 4z m576 -113 c319 -67 610 -219 839 -438 266 -254 427 -541 502
-897 24 -112 27 -148 27 -326 1 -170 -3 -217 -22 -315 -23 -114 -78 -300 -88
-300 -3 0 -27 18 -52 40 -25 23 -68 52 -95 66 -27 13 -84 49 -126 78 -111 78
-126 83 -252 95 -192 19 -248 39 -354 132 -42 37 -106 79 -161 106 -57 28 -97
54 -105 69 -7 13 -16 24 -21 24 -4 0 -8 5 -8 11 0 6 7 8 16 5 14 -5 15 -4 5 8
-6 7 -30 16 -52 20 -30 5 -39 10 -35 21 4 11 -2 15 -21 15 -21 0 -24 2 -13 15
10 12 9 15 -7 15 -26 0 -35 10 -23 25 8 9 1 18 -24 33 -29 17 -63 66 -94 135
-2 4 13 7 33 7 33 0 36 2 29 22 -11 37 -54 96 -89 122 -24 18 -36 40 -48 83
-23 79 -54 127 -112 171 -36 27 -54 51 -70 90 -12 29 -31 59 -43 68 -12 8 -38
44 -58 79 -23 41 -42 65 -53 65 -10 0 -32 -18 -50 -40 -30 -37 -31 -43 -25
-92 l7 -53 -27 28 c-22 24 -29 27 -41 17 -19 -16 -19 -40 2 -123 14 -53 15
-71 6 -87 -7 -10 -8 -20 -4 -22 5 -2 12 -66 16 -144 l7 -141 -31 -35 c-28 -32
-29 -37 -14 -43 16 -6 16 -8 -4 -18 -21 -9 -22 -11 -5 -24 16 -12 15 -15 -13
-38 -16 -14 -24 -25 -16 -25 9 0 11 -8 7 -25 -5 -20 -3 -23 10 -18 15 6 15 4
0 -20 -17 -25 -17 -25 3 -20 29 7 26 -7 -9 -47 -29 -35 -39 -57 -20 -45 21 13
31 -7 16 -31 -21 -31 -20 -37 5 -24 29 16 32 9 14 -33 -9 -22 -11 -37 -5 -37
5 0 10 -17 10 -38 0 -20 4 -52 9 -70 8 -27 6 -39 -9 -65 -25 -41 -25 -50 0
-35 26 17 34 5 21 -32 -10 -29 -9 -31 10 -25 17 6 20 3 16 -12 -3 -10 -9 -34
-12 -53 l-7 -35 26 24 c28 26 29 25 27 -29 -1 -26 1 -31 8 -20 18 26 46 -13
45 -60 -1 -22 2 -40 6 -40 5 0 6 -10 3 -22 -5 -23 -5 -23 10 -3 16 20 16 20
17 -4 0 -24 0 -24 15 -5 14 18 14 18 15 -11 0 -16 4 -37 10 -45 8 -12 10 -12
16 3 8 21 24 12 24 -13 0 -13 5 -17 15 -14 15 6 19 -5 29 -80 3 -21 28 -85 56
-141 58 -120 61 -135 23 -134 -52 1 -138 24 -174 46 -20 13 -43 23 -50 23 -8
0 -39 16 -69 36 -43 28 -58 34 -70 25 -8 -6 -25 -15 -37 -21 -12 -5 -44 -25
-71 -44 -58 -40 -126 -76 -145 -76 -14 0 -67 50 -67 63 0 4 14 1 30 -8 49 -25
36 1 -33 68 -34 33 -52 55 -40 49 12 -7 34 -17 50 -23 l28 -10 -34 35 c-40 42
-39 43 29 16 27 -11 50 -16 50 -11 0 11 -72 47 -112 56 -48 12 -31 25 32 25
75 0 78 15 6 24 -30 4 -62 14 -72 22 -18 14 -16 15 20 11 34 -3 36 -2 20 11
-17 12 -11 13 46 8 l65 -6 -70 35 c-40 19 -61 35 -50 35 16 1 15 4 -10 18
l-30 17 74 5 74 5 -61 29 c-68 33 -83 51 -24 30 20 -7 45 -13 56 -14 26 0 6
22 -50 55 -47 27 -60 51 -21 40 13 -5 4 6 -22 25 -39 29 -42 34 -26 42 12 7
29 7 51 0 19 -5 34 -7 34 -3 0 9 -46 52 -88 80 -37 26 -44 47 -9 31 l22 -11
-23 17 c-27 20 -29 38 -2 31 23 -6 27 8 6 20 -18 11 -38 51 -31 63 3 5 1 12
-5 15 -6 4 -8 15 -5 25 3 10 1 21 -5 25 -9 5 -15 -22 -11 -48 6 -34 -76 -3
-209 81 -68 43 -66 40 -54 52 7 7 28 7 63 -1 58 -12 78 -6 37 12 -43 20 -30
32 30 27 67 -6 62 1 -48 59 -67 35 -93 62 -42 42 44 -16 36 -5 -14 21 -59 32
-56 29 -51 34 2 3 36 -4 74 -14 l70 -19 -29 22 c-16 12 -43 35 -60 50 -30 28
-31 29 -6 23 21 -4 19 1 -20 36 l-45 40 51 -3 c69 -5 63 5 -51 86 -19 14 -19
14 5 15 l24 0 -22 16 c-26 18 -29 34 -5 34 14 0 15 2 1 18 -21 23 -34 70 -37
131 -1 24 -12 5 -16 -30 -3 -18 -10 -37 -17 -42 -10 -7 -10 -10 0 -14 21 -8
13 -24 -20 -35 -30 -11 -31 -12 -9 -20 28 -10 20 -23 -32 -50 l-42 -22 38 -6
c48 -9 56 -17 26 -28 -51 -19 -53 -21 -12 -15 56 7 56 -9 -1 -31 -24 -9 -61
-32 -82 -51 -36 -32 -37 -34 -9 -20 17 8 43 15 59 15 29 0 29 0 11 -20 -10
-12 -38 -29 -62 -40 -24 -10 -43 -20 -43 -22 0 -2 21 -2 48 -1 l47 3 -40 -19
c-48 -23 -27 -27 41 -6 48 14 49 14 27 -5 -13 -10 -23 -22 -23 -27 0 -4 -26
-20 -57 -35 -53 -24 -60 -25 -85 -12 -34 17 -36 32 -6 43 20 7 19 8 -11 14
-29 6 -32 10 -27 31 3 14 1 28 -4 31 -6 4 -8 10 -5 15 3 5 1 11 -5 15 -6 4 -8
11 -5 16 4 5 1 9 -4 9 -6 0 -12 -8 -13 -17 0 -10 -2 -29 -3 -43 -3 -33 -22
-70 -38 -71 -7 -1 -1 -4 13 -8 l25 -7 -28 -26 c-24 -22 -25 -26 -8 -21 37 9
23 -5 -50 -52 -39 -25 -70 -48 -68 -50 3 -2 23 2 47 8 31 8 45 8 53 0 8 -8 -7
-23 -57 -57 -68 -45 -67 -60 1 -32 19 8 35 11 35 6 0 -12 -91 -79 -107 -80
-33 0 -28 417 7 585 150 709 726 1246 1450 1351 151 21 434 12 586 -20z
m-1701 -1692 l-70 -25 50 6 c28 3 64 7 80 10 l30 5 -35 -18 c-19 -9 -47 -25
-62 -35 -25 -17 -28 -17 -65 0 -28 14 -37 24 -35 38 2 11 5 21 7 23 6 6 93 20
130 20 38 0 37 -1 -30 -24z m408 -190 c40 -8 78 -17 84 -19 19 -6 5 -30 -25
-42 -26 -10 -26 -11 -4 -12 35 -2 22 -22 -29 -50 l-44 -24 -53 33 c-59 36 -59
55 -1 45 49 -9 49 3 -1 38 -70 49 -50 58 73 31z m-86 -135 c15 -6 53 -13 83
-15 30 -3 59 -10 65 -15 5 -6 5 -9 -1 -9 -6 0 -19 -7 -30 -15 -18 -15 -17 -16
16 -10 33 6 34 5 16 -10 -11 -8 -27 -15 -36 -15 -16 0 -170 86 -170 95 0 8 27
5 57 -6z m33 -70 c76 -32 87 -48 43 -68 -25 -11 -29 -9 -75 36 -46 46 -61 71
-35 60 6 -3 37 -16 67 -28z m1741 -576 c37 -35 53 -59 70 -110 11 -35 18 -67
15 -70 -3 -4 -33 1 -66 10 -54 15 -64 16 -105 2 -43 -15 -138 -16 -152 -1 -8
8 14 132 28 159 9 16 18 18 55 12 36 -5 43 -4 38 9 -4 11 0 13 16 9 19 -5 20
-3 14 22 -6 26 -6 27 17 15 12 -7 44 -33 70 -57z m-461 -23 c0 -5 7 -7 15 -4
12 5 15 -2 15 -34 0 -21 3 -60 6 -86 l7 -46 -31 0 c-36 0 -102 29 -102 44 1
30 37 122 47 119 6 -2 14 1 18 6 8 14 25 14 25 1z m35 -361 c0 -117 -3 -139
-21 -173 -24 -45 -43 -50 -140 -41 l-61 6 14 52 c9 29 21 59 28 67 7 8 15 47
19 85 13 137 11 134 70 137 99 7 91 19 91 -133z m562 71 c14 -36 35 -76 45
-89 l19 -25 -48 -29 c-102 -64 -337 -165 -445 -191 -24 -6 -28 -3 -28 17 0 24
19 56 58 99 24 26 25 32 23 148 -1 66 1 124 4 130 4 7 68 9 176 8 l170 -3 26
-65z m-857 12 c0 -50 -22 -134 -63 -242 l-25 -65 -77 -1 c-69 0 -81 -3 -109
-28 -43 -37 -66 -41 -144 -22 -74 19 -121 41 -64 32 86 -15 93 -14 35 6 -69
24 -80 38 -30 38 27 1 20 5 -43 30 -89 35 -140 62 -140 72 0 5 10 6 23 3 89
-20 117 -24 152 -24 40 1 39 1 -25 23 -36 12 -80 30 -98 40 -36 18 -117 95
-109 102 3 3 22 -4 44 -16 42 -22 175 -53 202 -48 9 2 -15 14 -54 26 -70 21
-115 46 -115 62 0 5 14 4 32 -1 47 -13 47 -12 -5 21 -26 16 -47 32 -47 35 0 3
149 5 330 5 l330 0 0 -48z m1409 -149 c103 -59 129 -92 172 -221 18 -53 49
-139 71 -191 57 -141 61 -134 -78 -127 -65 4 -125 11 -135 16 -10 6 -30 10
-44 10 -17 0 -46 16 -77 42 l-51 42 7 80 c3 45 16 114 28 154 l21 73 -36 30
c-28 23 -38 41 -47 85 -7 31 -9 67 -5 81 l6 25 42 -26 c23 -14 80 -47 126 -73z
m-344 -110 c64 -58 76 -73 84 -114 6 -26 8 -69 4 -96 l-5 -50 -77 5 c-62 3
-81 9 -101 28 -19 17 -35 23 -67 21 -30 -1 -49 5 -65 19 -20 18 -38 21 -128
22 -58 1 -113 5 -122 8 -20 6 -25 24 -7 24 26 0 231 94 314 144 50 30 91 55
93 55 2 1 37 -29 77 -66z"/>
</g>
</svg>
